<svg width="291" height="189" viewBox="0 0 291 189" fill="none" xmlns="http://www.w3.org/2000/svg">
<g id="Vector 1">
<path d="M141.5 0.5H70C50.5 0.5 0.5 22.4 0.5 92C0.5 161.6 50 188.5 70 188.5H119.5L130 158.5H70C51 158.5 30 129.5 30 109.5H141.5C134.667 105 124.3 97.5 119.5 79.5H30C30.635 58.268 50.135 28.2679 70 29H119.5C121.167 20.5 124.3 9.7 141.5 0.5Z" fill="#1D6FE9"/>
<path d="M141.5 158.5H150.5L139 188.5H130L141.5 158.5Z" fill="#D81DE9"/>
<path d="M290.5 29H181C174.833 29.8333 161 41 161 55.5C161 69.1235 175.5 78.6667 181 79.5H250C270 79.5 290.5 89.4 290.5 133C290.5 176.6 269 188.5 250 188.5H150.5L161 158.5H240.5C260 158.5 260 133 260 133C260 133 260 109.5 240.5 109.5H181C162.667 107 130 93.9 130 55.5C130 17.1 158.333 3.33333 174.5 0.5H290.5V29Z" fill="#D81DE9"/>
</g>
</svg>
